<svg width="89" height="89" viewBox="0 0 89 89" fill="none" xmlns="http://www.w3.org/2000/svg">
<mask id="mask0_14_1086" style="mask-type:alpha" maskUnits="userSpaceOnUse" x="0" y="0" width="89" height="89">
<rect width="88.6991" height="88.6991" fill="#D9D9D9"/>
</mask>
<g mask="url(#mask0_14_1086)">
<path d="M35.1101 60.9807L60.9807 44.3496L35.1101 27.7185V60.9807ZM44.3496 81.3075C39.2371 81.3075 34.4325 80.3374 29.936 78.3971C25.4394 76.4568 21.528 73.8236 18.2018 70.4973C14.8756 67.1711 12.2423 63.2597 10.302 58.7632C8.36175 54.2666 7.3916 49.4621 7.3916 44.3496C7.3916 39.2371 8.36175 34.4325 10.302 29.936C12.2423 25.4394 14.8756 21.528 18.2018 18.2018C21.528 14.8756 25.4394 12.2423 29.936 10.302C34.4325 8.36175 39.2371 7.3916 44.3496 7.3916C49.4621 7.3916 54.2666 8.36175 58.7632 10.302C63.2597 12.2423 67.1711 14.8756 70.4973 18.2018C73.8236 21.528 76.4568 25.4394 78.3971 29.936C80.3374 34.4325 81.3075 39.2371 81.3075 44.3496C81.3075 49.4621 80.3374 54.2666 78.3971 58.7632C76.4568 63.2597 73.8236 67.1711 70.4973 70.4973C67.1711 73.8236 63.2597 76.4568 58.7632 78.3971C54.2666 80.3374 49.4621 81.3075 44.3496 81.3075Z" fill="white"/>
</g>
</svg>
